<svg width="268" height="241" viewBox="0 0 268 241" fill="none" xmlns="http://www.w3.org/2000/svg">
<g clip-path="url(#clip0_0_3889)">
<path d="M56.0417 20.017C56.9394 14.4987 63.4949 17.113 63.4949 17.113C63.4949 17.113 64.8864 10.1955 70.0033 12.4527C75.1202 14.7099 69.1819 27.6105 69.1819 27.6105C69.1819 27.6105 55.1395 25.5375 56.0417 20.017Z" fill="#E30814"/>
<path d="M196.965 94.5716C196.965 94.5716 188.141 98.0483 181.762 99.7934L184.036 79.8473L196.965 94.5716Z" fill="white"/>
<path d="M196.965 94.5717C200.414 93.2398 205.7 86.2325 200.457 77.6126C198.592 74.5469 185.584 68.3414 183.816 84.3707C182.377 97.4173 192.164 96.4178 196.965 94.5717Z" fill="white"/>
<path d="M191.456 95.9371C189.579 95.9371 187.752 95.5104 186.321 94.4054C183.93 92.5615 182.988 89.1746 183.522 84.3391C184.368 76.6603 187.761 74.3335 190.459 73.7338C194.743 72.7838 199.587 75.6474 200.691 77.4643C203.572 82.2033 203.159 86.1718 202.318 88.6671C201.196 91.9596 198.868 94.1381 197.057 94.8366C195.271 95.5358 193.373 95.9085 191.456 95.9371ZM192.272 74.1112C191.704 74.1093 191.138 74.1696 190.583 74.2908C186.976 75.0926 184.729 78.5895 184.088 84.3975C183.578 89.0219 184.447 92.2358 186.668 93.9472C188.464 95.3262 192.07 96.1438 196.851 94.2999C198.485 93.671 200.724 91.58 201.788 88.4784C202.596 86.0999 202.98 82.3088 200.217 77.7563C199.313 76.2987 195.809 74.1112 192.272 74.1112Z" fill="#31313B"/>
<path d="M197.638 116.876C200.634 114.706 204.948 104.748 197.674 97.7563C195.086 95.2701 183.878 93.4891 182.036 106.489C180.193 119.488 193.488 119.899 197.638 116.876Z" fill="white"/>
<path d="M191.875 118.72C189.806 118.72 187.633 118.251 185.84 117.168C183.488 115.749 180.871 112.741 181.76 106.459C182.716 99.7216 186.105 97.1949 188.78 96.2696C192.501 94.9826 196.456 96.1932 197.878 97.5587C199.295 98.8815 200.394 100.507 201.093 102.315C201.793 104.123 202.075 106.066 201.918 107.998C201.694 111.174 200.1 115.454 197.807 117.116C196.435 118.116 194.223 118.72 191.875 118.72ZM192.227 96.3302C191.122 96.3165 190.021 96.4779 188.966 96.8086C186.442 97.6823 183.241 100.079 182.326 106.538C181.48 112.512 183.93 115.349 186.141 116.678C189.956 118.987 195.327 118.219 197.486 116.656C199.18 115.425 201.094 111.836 201.364 107.957C201.513 106.108 201.242 104.25 200.571 102.52C199.9 100.791 198.847 99.236 197.49 97.972C196.247 96.7839 194.162 96.3302 192.227 96.3302Z" fill="#31313B"/>
<path d="M194.573 136.665C194.573 136.665 185.746 140.144 179.37 141.887L181.641 121.943L194.573 136.665Z" fill="white"/>
<path d="M148.091 72.6311C148.091 72.6311 189.063 42.5917 198.424 45.8034C201.682 46.9263 204.104 51.8292 197.019 59.7169C185.553 72.4828 164.079 92.4649 164.079 92.4649L148.091 72.6311Z" fill="white"/>
<path d="M164.08 92.7547H164.06C164.021 92.7514 163.983 92.7404 163.948 92.7223C163.913 92.7042 163.883 92.6793 163.858 92.6491L147.87 72.8153C147.844 72.7841 147.826 72.7481 147.816 72.7094C147.805 72.6707 147.803 72.6303 147.809 72.5907C147.814 72.5524 147.827 72.5156 147.846 72.4824C147.866 72.4492 147.892 72.4203 147.923 72.3975C148.027 72.3212 158.305 64.7995 169.596 57.7675C184.819 48.2852 194.548 44.1684 198.516 45.5294C199.298 45.796 200 46.2555 200.558 46.8655C201.115 47.4756 201.51 48.2164 201.705 49.0196C202.248 51.1106 201.912 54.6928 197.232 59.9034C185.89 72.5323 164.488 92.4694 164.275 92.6693C164.223 92.7216 164.154 92.7521 164.08 92.7547ZM148.503 72.6895L164.109 92.0517C166.43 89.8844 186.103 71.4452 196.808 59.5306C200.327 55.6137 201.869 51.9348 201.153 49.1723C200.98 48.4611 200.631 47.805 200.138 47.2642C199.645 46.7234 199.024 46.3153 198.332 46.0774C189.584 43.0791 151.894 70.228 148.503 72.6895Z" fill="#31313B"/>
<path d="M107.127 217.494C107.127 217.494 125.395 230.819 123.153 236.953C120.911 243.086 101.637 226.846 101.637 226.846L107.127 217.494Z" fill="#31313C"/>
<path d="M74.9465 145.175C74.9465 145.175 69.3561 158.626 61.3642 179.174C53.3724 199.722 45.8159 214.925 45.8159 214.925L114.744 242.599L139.582 160.973L74.9465 145.175Z" fill="white"/>
<path d="M114.744 243.125C114.677 243.124 114.611 243.111 114.549 243.086L45.6227 215.412C45.5562 215.385 45.496 215.345 45.4459 215.294C45.3957 215.242 45.3566 215.181 45.3312 215.114C45.3057 215.047 45.2943 214.976 45.2977 214.904C45.3012 214.832 45.3193 214.762 45.3511 214.698C45.4252 214.545 52.9817 199.279 60.8815 178.987C68.7813 158.695 74.87 142.23 74.9306 142.066C74.9553 142 74.9931 141.94 75.0418 141.889C75.0905 141.838 75.149 141.797 75.2139 141.77C75.2787 141.742 75.3485 141.728 75.419 141.728C75.4895 141.728 75.5593 141.742 75.6241 141.77L135.829 167.924C135.944 167.974 136.037 168.064 136.091 168.178C136.144 168.291 136.155 168.421 136.121 168.542L115.249 242.743C115.229 242.813 115.194 242.878 115.148 242.934C115.101 242.99 115.043 243.036 114.977 243.068C114.905 243.105 114.825 243.125 114.744 243.125ZM46.5182 214.655L114.389 241.905L134.987 168.701L75.7027 142.945C74.6097 145.889 68.9564 161.06 61.8375 179.367C54.7457 197.635 47.9029 211.843 46.5294 214.655H46.5182Z" fill="#31313C"/>
<path d="M81.8878 153.386C81.8878 153.386 75.3278 169.211 70.9986 164.854C56.1258 149.893 59.7593 126.94 65.5338 116.029C72.399 103.052 77.5002 72.53 84.233 77.2487C88.3221 80.1123 86.0487 92.5076 85.0096 103.05C84.3363 109.875 84.7245 115.982 85.8646 118.033C88.2346 122.3 92.1037 126.194 92.5279 129.9C94.1303 143.908 81.8878 153.386 81.8878 153.386Z" fill="white"/>
<path d="M70.9986 165.375C70.9302 165.375 70.8625 165.361 70.7993 165.335C70.7362 165.309 70.6788 165.271 70.6305 165.222C61.4672 156.097 59.8805 144.411 60.1633 136.218C60.4954 126.572 63.5746 117.536 66.4764 112.86C68.7453 109.204 70.9156 102.304 73.0139 95.6205C76.515 84.4717 79.0465 77.0961 82.1706 76.2044C82.9942 75.9798 83.8021 76.1887 84.5742 76.8513C89.1884 80.8288 87.8553 88.7839 86.4459 97.2084C85.0118 105.777 83.5284 114.639 88.1022 119.957C91.9623 124.449 93.6971 129.359 93.264 134.556C92.3528 145.289 82.6419 153.438 82.2289 153.779C82.1227 153.868 81.9853 153.912 81.847 153.9C81.7088 153.888 81.581 153.821 81.4917 153.715C81.4024 153.609 81.359 153.471 81.371 153.333C81.383 153.194 81.4494 153.067 81.5556 152.977C81.6521 152.896 91.3451 144.757 92.2159 134.464C92.6334 129.55 90.9816 124.896 87.3122 120.629C82.4197 114.94 83.9458 105.835 85.418 97.0287C86.778 88.9029 88.064 81.2286 83.8919 77.6328C83.2321 77.0646 82.7541 77.114 82.4533 77.1994C79.6345 78.0034 76.6429 87.5307 74.0037 95.926C71.8851 102.664 69.6969 109.626 67.3584 113.402C64.5284 117.959 61.5233 126.79 61.2001 136.245C60.9241 144.232 62.4636 155.614 71.3622 164.476C71.438 164.549 71.4902 164.642 71.5122 164.744C71.5342 164.847 71.5248 164.953 71.4853 165.05C71.4458 165.147 71.378 165.23 71.2908 165.288C71.2036 165.346 71.101 165.376 70.9964 165.375H70.9986Z" fill="#31313C"/>
<path d="M123.153 236.944L115.886 268.227C95.4879 261.433 82.5408 248.721 56.2559 244.09C49.3413 242.871 41.5065 242.21 32.3701 242.368L54.4537 194.361C54.4537 194.361 54.6108 194.563 54.9318 194.938C57.1267 197.519 66.9745 208.357 85.8309 218.969C91.6435 222.244 97.537 225.258 102.869 227.832C108.464 230.538 113.444 232.773 117.071 234.345L117.239 234.417C120.911 236.041 123.153 236.944 123.153 236.944Z" fill="#29225A"/>
<path d="M78.7346 192.584L158.7 203.589C163.023 204.184 167.035 200.847 167.662 196.137L188.479 39.7214C189.108 35.005 186.112 30.7085 181.789 30.1156L101.824 19.1105C97.4989 18.5153 93.4862 21.8505 92.86 26.5625L72.0422 182.978C71.416 187.688 74.4121 191.989 78.7346 192.584Z" fill="#31313C"/>
<path d="M82.9964 193.031L164.014 204.182C168.054 204.737 171.789 201.624 172.372 197.22L193.307 39.9281C193.892 35.535 191.098 31.5238 187.065 30.969L106.047 19.8202C102.008 19.2655 98.2731 22.3761 97.6896 26.7691L76.755 184.061C76.1693 188.465 78.9657 192.476 82.9964 193.031Z" fill="white"/>
<path d="M88.7643 93.8552V93.8777L88.7486 94.0057V94.082L88.7037 94.4234C88.716 94.42 88.7281 94.4155 88.7396 94.4099L88.7868 94.3942L89.0897 94.2932L89.4354 91.6901L88.7643 93.8552ZM88.7643 93.8552V93.8777L88.7486 94.0057V94.082L88.7037 94.4234H88.7396L88.7868 94.4077L89.0897 94.3066L89.4354 91.7036L88.7643 93.8552ZM185.093 98.7963L185.05 99.1219L185.077 99.0905L185.167 98.9917L185.254 98.8928C185.279 98.8681 185.304 98.8389 185.331 98.8142C185.358 98.7895 185.391 98.7491 185.423 98.7177L185.45 98.6907V98.6772L185.093 98.7963ZM183.549 114.684C183.534 114.661 183.519 114.64 183.502 114.619C183.472 114.579 183.444 114.538 183.419 114.495L183.392 114.457C183.32 114.352 183.253 114.233 183.185 114.134L183.075 113.943L181.964 122.307L182.189 122.558C182.207 122.504 182.222 122.45 182.238 122.399C182.254 122.347 182.272 122.293 182.288 122.242C182.323 122.132 182.359 122.017 182.397 121.911C182.441 121.787 182.486 121.666 182.532 121.548C182.568 121.444 182.608 121.343 182.651 121.244C182.694 121.146 182.716 121.085 182.752 121.006C182.788 120.928 182.79 120.912 182.813 120.867C182.862 120.757 182.911 120.642 182.961 120.548L183.708 114.933C183.657 114.834 183.6 114.763 183.549 114.688V114.684ZM185.093 98.7963L185.05 99.1219L185.077 99.0905L185.167 98.9917L185.254 98.8928C185.279 98.8681 185.304 98.8389 185.331 98.8142C185.358 98.7895 185.391 98.7491 185.423 98.7177L185.45 98.6907V98.6772L185.093 98.7963ZM183.499 114.63C183.47 114.59 183.442 114.549 183.416 114.507L183.389 114.468C183.318 114.363 183.25 114.244 183.183 114.145L183.073 113.954L181.962 122.318L182.187 122.569C182.2 122.516 182.218 122.462 182.236 122.41C182.254 122.358 182.27 122.304 182.285 122.253C182.321 122.14 182.357 122.028 182.395 121.923C182.439 121.798 182.484 121.677 182.53 121.559C182.566 121.455 182.606 121.354 182.649 121.256C182.691 121.157 182.714 121.094 182.75 121.018C182.786 120.941 182.788 120.925 182.81 120.878C182.86 120.768 182.909 120.654 182.959 120.559L183.706 114.945C183.65 114.87 183.594 114.799 183.542 114.72C183.53 114.689 183.516 114.659 183.499 114.63ZM187.119 30.576L106.101 19.4272C105.443 19.3339 104.775 19.3339 104.117 19.4272C100.706 19.9235 97.8334 22.8522 97.324 26.7287L92.2497 64.8647L92.1644 65.4846L89.9852 81.8799L89.0718 88.7345V88.7569L88.2998 94.5582L88.0978 96.0607V96.0832L86.2305 110.129L85.4293 116.144L85.3642 116.633L85.0994 118.621L81.5984 144.923L81.3582 146.738L79.9152 157.57L78.9995 164.465L78.8805 165.364L76.3962 184.005C76.3237 184.546 76.3012 185.092 76.3288 185.638C76.3813 186.881 76.698 188.099 77.2579 189.211C78.057 190.837 79.3962 192.136 81.0463 192.883H81.0597C81.6642 193.15 82.3034 193.331 82.9584 193.42L126.892 199.466L127.844 199.596L161.025 204.162L163.981 204.571C168.211 205.155 172.157 201.876 172.77 197.26L173.461 192.056L173.93 188.537L174.379 185.195L174.433 184.791L174.531 184.059L175.393 177.588L178.281 155.87L179.179 149.204L180.185 141.653L181.531 131.546L181.74 129.961L182.66 123.059L182.997 120.526L183.744 114.911L185.923 98.547L185.964 98.2438L186.507 94.1651L187.838 84.1573L189.124 74.4997L190.104 67.1263L192.885 46.2391L193.715 39.9932C194.301 35.3778 191.354 31.1509 187.122 30.5692L187.119 30.576ZM192.925 39.8854L192.048 46.4772L189.177 68.0382L188.257 74.9534L187.135 83.3981L185.789 93.543L185.088 98.7985L185.046 99.1242L183.071 113.947L181.96 122.311L180.961 129.815L179.435 141.283L178.501 148.297L177.586 155.171L174.722 176.699L173.923 182.698L173.643 184.804L173.609 185.047L173.144 188.553L172.745 191.553L171.998 197.168C171.443 201.33 167.888 204.288 164.069 203.76L161.535 203.412L160.119 203.217L128.066 198.817L127.099 198.684L83.0504 192.62C82.0221 192.47 81.042 192.085 80.1858 191.496C79.3297 190.906 78.6205 190.127 78.113 189.22C77.4797 188.129 77.1179 186.902 77.0582 185.642C77.0316 185.135 77.0519 184.627 77.1188 184.124L79.5875 165.527L79.7401 164.384L80.9251 155.488L82.0629 146.933L82.2874 145.249L85.8984 118.132L85.932 117.882L85.968 117.61L86.9397 110.298L89.0695 94.3066L89.4152 91.7036V91.6834L90.7325 81.7653V81.7384L90.7505 81.6171L92.9027 65.4464L92.9925 64.7726L98.0399 26.8522C98.5942 22.6905 102.151 19.7326 105.969 20.2604L184.444 31.0589L186.978 31.4092C190.831 31.9146 193.489 35.7282 192.925 39.8854ZM183.54 114.688C183.525 114.666 183.51 114.644 183.493 114.623C183.463 114.584 183.435 114.542 183.41 114.5L183.383 114.462C183.311 114.356 183.244 114.237 183.176 114.138L183.066 113.947L181.955 122.311L182.18 122.563C182.198 122.509 182.213 122.455 182.229 122.403C182.245 122.352 182.263 122.298 182.279 122.246C182.314 122.136 182.35 122.021 182.389 121.916C182.432 121.792 182.477 121.67 182.523 121.552C182.559 121.449 182.599 121.348 182.642 121.249C182.685 121.15 182.707 121.089 182.743 121.011C182.779 120.932 182.781 120.916 182.804 120.872C182.853 120.762 182.902 120.647 182.952 120.553L183.699 114.938C183.657 114.834 183.6 114.763 183.549 114.688H183.54ZM185.084 98.8008L185.041 99.1264L185.068 99.095L185.158 98.9962L185.245 98.8973C185.27 98.8726 185.295 98.8434 185.322 98.8187C185.349 98.794 185.382 98.7536 185.414 98.7221L185.441 98.6952V98.6817L185.084 98.8008ZM183.54 114.688C183.525 114.666 183.51 114.644 183.493 114.623C183.463 114.584 183.435 114.542 183.41 114.5L183.383 114.462C183.311 114.356 183.244 114.237 183.176 114.138L183.066 113.947L181.955 122.311L182.18 122.563C182.198 122.509 182.213 122.455 182.229 122.403C182.245 122.352 182.263 122.298 182.279 122.246C182.314 122.136 182.35 122.021 182.389 121.916C182.432 121.792 182.477 121.67 182.523 121.552C182.559 121.449 182.599 121.348 182.642 121.249C182.685 121.15 182.707 121.089 182.743 121.011C182.779 120.932 182.781 120.916 182.804 120.872C182.853 120.762 182.902 120.647 182.952 120.553L183.699 114.938C183.657 114.834 183.6 114.763 183.549 114.688H183.54ZM185.084 98.8008L185.041 99.1264L185.068 99.095L185.158 98.9962L185.245 98.8973C185.27 98.8726 185.295 98.8434 185.322 98.8187C185.349 98.794 185.382 98.7536 185.414 98.7221L185.441 98.6952V98.6817L185.084 98.8008ZM88.7553 93.8597V93.8822L88.7396 94.0102V94.0865L88.6947 94.4279H88.7306L88.7778 94.4122L89.0808 94.3111L89.4264 91.7081L88.7553 93.8597Z" fill="#31313B"/>
<path d="M164.251 190.543C164.075 190.543 163.899 190.531 163.725 190.507L86.8501 179.928C84.6059 179.618 83.0349 177.379 83.3491 174.94L98.7089 59.5104L102.439 31.4924C102.594 30.2786 103.221 29.1751 104.185 28.4221C104.598 28.1009 105.071 27.8652 105.576 27.7287C106.081 27.5922 106.609 27.5576 107.127 27.6271L184 38.2032C186.244 38.5154 187.815 40.7523 187.501 43.1937L176.601 125.096L168.409 186.635C168.256 187.848 167.629 188.951 166.665 189.703C165.975 190.242 165.126 190.537 164.251 190.543ZM106.602 28.348C105.895 28.3515 105.208 28.5884 104.649 29.0218C103.847 29.6512 103.325 30.5721 103.197 31.5844L99.4674 59.6047L84.1077 175.046C83.8383 177.067 85.1153 178.922 86.9556 179.176L163.829 189.752C164.247 189.808 164.673 189.78 165.08 189.669C165.487 189.557 165.868 189.366 166.201 189.105C167.003 188.477 167.524 187.557 167.651 186.545L175.842 125.006L186.743 43.1038C187.012 41.0825 185.735 39.2274 183.895 38.9736L107.022 28.3862C106.883 28.3645 106.743 28.3518 106.602 28.348Z" fill="#31313C"/>
<path d="M147.409 30.1537C147.524 29.2778 146.961 28.4783 146.164 28.357C145.964 28.3384 145.762 28.3596 145.57 28.4192C145.377 28.4788 145.199 28.5758 145.044 28.7045C144.89 28.8331 144.762 28.9911 144.668 29.1692C144.575 29.3474 144.517 29.5423 144.499 29.7427C144.382 30.6186 144.948 31.4182 145.742 31.5282C146.536 31.6383 147.293 31.0296 147.409 30.1537Z" fill="#31313B"/>
<path d="M116.739 193.094L131.473 195.115C132.465 195.252 133.394 194.48 133.537 193.4L133.762 191.76C133.906 190.68 133.21 189.683 132.218 189.546L117.484 187.524C116.492 187.389 115.563 188.162 115.419 189.242L115.195 190.882C115.049 191.96 115.747 192.957 116.739 193.094Z" fill="white"/>
<path d="M132.27 189.141L131.064 188.975L130.676 188.921L129.879 188.811L117.536 187.113C116.387 186.954 115.316 187.787 115.067 189.015C115.067 189.072 115.047 189.132 115.04 189.191L114.816 190.828C114.643 192.135 115.489 193.337 116.679 193.501L128.111 195.073L129.159 195.217L131.403 195.526C132.606 195.693 133.726 194.761 133.901 193.453L134.126 191.814C134.305 190.507 133.472 189.307 132.27 189.141ZM133.392 191.713L133.167 193.35C133.128 193.745 132.933 194.109 132.627 194.361C132.32 194.614 131.926 194.735 131.531 194.698L129.41 194.406L128.347 194.26L116.798 192.67C116.404 192.598 116.055 192.374 115.827 192.045C115.598 191.717 115.508 191.312 115.577 190.918L115.801 189.28C115.813 189.185 115.833 189.091 115.862 189C115.953 188.663 116.162 188.37 116.45 188.172C116.737 187.975 117.086 187.886 117.433 187.922L124.899 188.946L129.662 189.602L130.829 189.761L132.175 189.948C132.947 190.069 133.493 190.855 133.38 191.713H133.392Z" fill="#31313B"/>
<g opacity="0.2">
<path d="M187.122 43.1352L176.221 125.035L99.0879 59.553L102.818 31.5305C103.116 29.2845 105.022 27.7124 107.082 27.9954L183.948 38.5737C185.999 38.8567 187.42 40.896 187.122 43.1352Z" fill="#E7EAEF"/>
</g>
<g opacity="0.2">
<path d="M93.659 100.364L83.7281 174.981C83.4296 177.227 84.8502 179.248 86.9037 179.54L163.777 190.118C165.828 190.401 167.733 188.818 168.041 186.583L171.486 160.699L93.659 100.364Z" fill="#E7EAEF"/>
</g>
<path d="M194.572 136.665C198.022 135.335 203.307 128.328 198.062 119.706C196.197 116.64 183.189 110.435 181.421 126.466C179.982 139.513 189.783 138.513 194.572 136.665Z" fill="white"/>
<path d="M189.074 138.033C187.198 138.033 185.371 137.604 183.937 136.499C181.547 134.657 180.604 131.27 181.138 126.435C181.987 118.754 185.38 116.429 188.078 115.829C192.36 114.877 197.203 117.743 198.307 119.558C201.191 124.299 200.776 128.267 199.936 130.763C198.814 134.055 196.487 136.234 194.673 136.932C192.888 137.631 190.991 138.004 189.074 138.033ZM189.889 116.207C189.321 116.205 188.755 116.265 188.201 116.386C184.592 117.188 182.346 120.683 181.706 126.493C181.194 131.118 182.063 134.329 184.285 136.043C186.08 137.422 189.689 138.237 194.469 136.395C196.103 135.764 198.341 133.676 199.395 130.574C200.206 128.193 200.589 124.402 197.824 119.85C196.931 118.394 193.426 116.202 189.889 116.202V116.207Z" fill="#31313B"/>
<path d="M195.526 133.047C195.481 133.047 195.436 133.036 195.396 133.015C195.363 132.998 195.333 132.975 195.309 132.946C195.285 132.918 195.266 132.885 195.255 132.849C195.243 132.813 195.239 132.776 195.242 132.738C195.245 132.701 195.256 132.665 195.273 132.631C198.832 125.689 196.02 120.348 195.991 120.294C195.959 120.228 195.954 120.153 195.976 120.083C195.999 120.013 196.047 119.955 196.112 119.92C196.176 119.885 196.251 119.876 196.322 119.895C196.393 119.914 196.453 119.96 196.491 120.023C196.523 120.079 197.259 121.458 197.544 123.742C197.804 125.84 197.71 129.132 195.782 132.892C195.758 132.939 195.721 132.978 195.676 133.005C195.631 133.033 195.579 133.047 195.526 133.047Z" fill="#31313B"/>
<path d="M148.821 107.283L104.326 101.953C104.081 101.923 103.859 101.797 103.706 101.603C103.554 101.409 103.485 101.163 103.513 100.918V100.822C103.543 100.576 103.669 100.353 103.863 100.2C104.056 100.047 104.303 99.9777 104.548 100.006L149.043 105.336C149.287 105.366 149.51 105.492 149.662 105.686C149.814 105.88 149.884 106.126 149.855 106.371V106.468C149.825 106.713 149.7 106.936 149.506 107.089C149.312 107.242 149.066 107.312 148.821 107.283Z" fill="#31313C"/>
<path d="M146.85 125.976L102.439 120.783C102.181 120.752 101.946 120.621 101.785 120.417C101.624 120.213 101.55 119.954 101.579 119.696C101.609 119.438 101.741 119.203 101.944 119.042C102.148 118.88 102.407 118.806 102.665 118.836L147.077 124.029C147.335 124.059 147.57 124.191 147.731 124.394C147.893 124.598 147.966 124.858 147.937 125.116C147.905 125.373 147.773 125.608 147.57 125.769C147.367 125.93 147.108 126.005 146.85 125.976Z" fill="#31313C"/>
<path d="M130.098 109.573L103.923 106.889C103.492 106.845 103.108 107.158 103.064 107.589L103.024 107.98C102.98 108.41 103.293 108.795 103.723 108.839L129.898 111.523C130.328 111.567 130.713 111.254 130.757 110.823L130.797 110.432C130.841 110.002 130.528 109.617 130.098 109.573Z" fill="#31313C"/>
<path d="M151.999 114.207L135.182 112.186C134.925 112.154 134.691 112.021 134.531 111.817C134.371 111.613 134.298 111.354 134.327 111.097C134.359 110.839 134.491 110.604 134.695 110.443C134.899 110.282 135.158 110.209 135.416 110.239L152.232 112.26C152.489 112.292 152.724 112.425 152.884 112.629C153.044 112.833 153.117 113.092 153.087 113.349C153.056 113.607 152.924 113.842 152.72 114.003C152.516 114.164 152.257 114.237 151.999 114.207Z" fill="#31313C"/>
<path d="M127.911 127.533L101.777 124.479C101.347 124.429 100.958 124.736 100.908 125.166L100.863 125.557C100.812 125.987 101.12 126.376 101.55 126.426L127.684 129.48C128.114 129.53 128.503 129.222 128.553 128.792L128.598 128.402C128.649 127.972 128.341 127.583 127.911 127.533Z" fill="#31313C"/>
<path d="M149.846 132.085L133.014 130.12C132.757 130.089 132.522 129.957 132.361 129.754C132.2 129.55 132.126 129.291 132.155 129.033C132.186 128.775 132.317 128.54 132.521 128.379C132.724 128.218 132.983 128.143 133.241 128.173L150.073 130.138C150.331 130.169 150.565 130.3 150.726 130.504C150.888 130.708 150.962 130.967 150.932 131.225C150.902 131.483 150.77 131.718 150.566 131.879C150.363 132.04 150.104 132.114 149.846 132.085Z" fill="#31313C"/>
<path d="M144.004 144.828L99.6644 139.041C99.4072 139.006 99.1739 138.872 99.0158 138.666C98.8576 138.46 98.7874 138.2 98.8205 137.942C98.8546 137.685 98.9893 137.452 99.1949 137.293C99.4006 137.135 99.6606 137.065 99.918 137.098L144.258 142.886C144.515 142.92 144.748 143.055 144.907 143.26C145.065 143.466 145.135 143.726 145.102 143.984C145.068 144.241 144.933 144.475 144.727 144.633C144.522 144.791 144.262 144.862 144.004 144.828Z" fill="#31313C"/>
<path d="M124.843 148.098L98.6253 144.676C98.4363 144.65 98.2652 144.551 98.1491 144.399C98.0331 144.248 97.9816 144.056 98.0059 143.867L98.0732 143.353C98.0978 143.163 98.1964 142.992 98.3475 142.875C98.4985 142.758 98.6897 142.706 98.8789 142.731L125.096 146.153C125.286 146.179 125.457 146.279 125.573 146.43C125.69 146.581 125.742 146.772 125.718 146.962L125.651 147.476C125.625 147.666 125.526 147.837 125.375 147.954C125.223 148.07 125.032 148.122 124.843 148.098Z" fill="#31313C"/>
<path d="M146.917 150.98L130.123 148.788C129.866 148.753 129.633 148.618 129.475 148.412C129.317 148.206 129.246 147.945 129.28 147.687C129.314 147.43 129.448 147.197 129.654 147.038C129.86 146.88 130.12 146.81 130.377 146.843L147.171 149.035C147.428 149.069 147.661 149.204 147.819 149.41C147.978 149.616 148.048 149.876 148.015 150.133C147.981 150.391 147.846 150.624 147.64 150.783C147.435 150.942 147.175 151.013 146.917 150.98Z" fill="#31313C"/>
<path d="M138.298 66.3957L107.314 62.583C106.677 62.5045 106.097 62.958 106.018 63.5957L102.208 94.6031C102.13 95.2408 102.583 95.8214 103.22 95.8998L134.205 99.7125C134.842 99.7909 135.422 99.3375 135.5 98.6998L139.31 67.6924C139.389 67.0547 138.936 66.4741 138.298 66.3957Z" fill="#FFFDFC"/>
<path d="M254.955 15.7101C255.009 15.7325 255.056 15.7706 255.089 15.8196C255.122 15.8687 255.14 15.9265 255.14 15.9857C255.141 16.0448 255.123 16.1027 255.091 16.152C255.058 16.2013 255.011 16.2398 254.957 16.2625C254.902 16.2852 254.842 16.2912 254.784 16.2797C254.726 16.2682 254.673 16.2397 254.631 16.1979C254.589 16.156 254.561 16.1027 254.549 16.0447C254.538 15.9866 254.544 15.9265 254.566 15.8718C254.581 15.8356 254.603 15.8027 254.63 15.7749C254.658 15.7471 254.691 15.7251 254.727 15.7101C254.763 15.695 254.802 15.6873 254.841 15.6873C254.88 15.6873 254.919 15.6951 254.955 15.7101Z" fill="#D75F4B"/>
<path d="M93.7487 15.2474C93.5003 12.6332 93.2519 10.0174 93.0036 7.40012C92.9385 6.70838 91.8478 6.70164 91.9151 7.40012C92.162 10.0174 92.4096 12.6332 92.6579 15.2474C92.723 15.9414 93.8137 15.9482 93.7487 15.2474Z" fill="#31313C"/>
<path d="M102.14 15.2385L108.963 1.14302C109.268 0.511912 108.328 -0.0405934 108.022 0.590514C105.747 5.29051 103.472 9.98976 101.198 14.6883C100.895 15.3171 101.833 15.8719 102.14 15.2385Z" fill="#31313C"/>
<path d="M113.31 18.3244L114.948 17.3474C115.55 16.9881 115.002 16.0448 114.398 16.4041L112.76 17.3811C112.156 17.7405 112.706 18.6838 113.31 18.3244Z" fill="#31313C"/>
<g clip-path="url(#clip1_0_3889)">
<path d="M122.582 68.6527C122.638 68.6004 122.626 68.5453 122.633 68.4977C122.729 67.7551 122.826 67.0129 122.925 66.2706C122.94 66.1751 122.922 66.0773 122.872 65.9943C121.92 64.3119 120.97 62.6288 120.021 60.9449C119.492 60.0113 118.495 59.5441 117.452 59.7268C116.409 59.9095 115.652 60.6803 115.438 61.7297C115.297 62.4181 115.068 63.0846 114.876 63.7605C114.368 65.5507 113.857 67.3398 113.341 69.1278C113.298 69.2792 113.252 69.43 113.207 69.5836C113.126 69.5637 113.117 69.4996 113.094 69.453C110.502 64.3404 113.922 58.3184 119.578 57.9667C122.307 57.7984 124.535 58.8652 126.254 61.0002C126.346 61.1159 126.349 61.2063 126.298 61.3387C125.241 64.0715 124.186 66.8055 123.134 69.5408C123.107 69.6098 123.083 69.6803 123.064 69.7521C122.981 70.0798 122.786 70.2732 122.477 70.3143C122.168 70.3554 121.944 70.2146 121.782 69.9525C120.981 68.6519 120.177 67.3521 119.371 66.0532C118.798 65.1271 118.224 64.2014 117.65 63.276C117.62 63.2282 117.589 63.1812 117.558 63.134C117.496 63.1605 117.513 63.2156 117.508 63.2558C117.409 64.0154 117.31 64.7746 117.209 65.5346C117.195 65.6188 117.211 65.7052 117.254 65.7788C118.203 67.4564 119.151 69.1348 120.097 70.814C121.03 72.467 123.145 72.4368 124.164 71.2025C124.401 70.9224 124.568 70.5894 124.652 70.2314C124.857 69.322 125.145 68.4361 125.397 67.5401C125.88 65.8256 126.376 64.1144 126.866 62.402C126.89 62.3199 126.915 62.2381 126.942 62.1489C127.024 62.1758 127.032 62.2505 127.061 62.3065C127.896 63.9936 128.1 65.927 127.637 67.7549C127.174 69.5829 126.074 71.1839 124.537 72.2667C121.171 74.6518 116.502 73.9872 113.936 70.7621C113.827 70.6259 113.806 70.5186 113.871 70.352C114.919 67.6469 115.963 64.9402 117.001 62.2318C117.025 62.1738 117.045 62.1139 117.059 62.0528C117.125 61.7331 117.311 61.5321 117.632 61.4746C117.958 61.4174 118.187 61.5668 118.356 61.8408C118.863 62.666 119.373 63.4902 119.886 64.3134C120.753 65.7139 121.621 67.1147 122.489 68.5158C122.518 68.5616 122.549 68.6047 122.582 68.6527Z" fill="#29225A"/>
<path d="M147.021 74.8429C146.582 74.7858 146.143 74.7181 145.702 74.677C145.524 74.6604 145.471 74.5965 145.452 74.4224C145.246 72.4401 145.035 70.4582 144.819 68.4769C144.819 68.4598 144.817 68.4428 144.815 68.4258C144.803 68.3738 144.821 68.2994 144.739 68.2942C144.671 68.2899 144.668 68.3566 144.65 68.4021C144.514 68.7593 144.378 69.1168 144.242 69.4745C143.66 71.0067 143.075 72.5379 142.499 74.0722C142.446 74.213 142.383 74.2449 142.239 74.2251C141.333 74.1004 140.425 73.9825 139.517 73.8713C139.392 73.8551 139.348 73.8147 139.337 73.686C139.055 70.4496 138.769 67.2137 138.479 63.9782C138.467 63.8455 138.493 63.8104 138.63 63.8296C139.333 63.9273 140.037 64.0198 140.743 64.1043C140.878 64.1218 140.905 64.1766 140.913 64.2994C141.042 66.2193 141.173 68.1389 141.306 70.0581C141.331 70.4169 141.354 70.7762 141.381 71.135C141.386 71.1916 141.363 71.2758 141.454 71.2856C141.545 71.2953 141.541 71.2097 141.561 71.1555C142.344 69.0281 143.128 66.9005 143.91 64.7726C144.017 64.4824 143.958 64.5281 144.255 64.5653C144.96 64.6541 145.664 64.7511 146.369 64.8359C146.497 64.8526 146.536 64.9008 146.548 65.0252C146.764 67.2692 146.983 69.513 147.205 71.7567C147.21 71.8078 147.212 71.8593 147.219 71.9101C147.226 71.9608 147.213 72.0369 147.292 72.0451C147.371 72.0533 147.375 71.9812 147.392 71.9291C147.527 71.5112 147.662 71.093 147.796 70.6743C148.363 68.914 148.929 67.1535 149.495 65.3928C149.53 65.2845 149.576 65.2528 149.689 65.2682C150.387 65.3641 151.086 65.4566 151.785 65.5407C151.937 65.5603 151.971 65.59 151.914 65.7442C151.383 67.1972 150.862 68.6546 150.336 70.1096C149.761 71.6981 149.183 73.2851 148.613 74.8748C148.565 75.009 148.512 75.0464 148.37 75.0249C147.923 74.9537 147.472 74.9015 147.021 74.8429Z" fill="#29225A"/>
<path d="M130.073 67.692C130.277 66.1273 130.48 64.5642 130.68 63C130.699 62.8531 130.733 62.7994 130.897 62.8224C133.043 63.1078 135.189 63.3868 137.337 63.6594C137.467 63.6764 137.504 63.712 137.484 63.8488C137.408 64.3693 137.34 64.8909 137.281 65.4136C137.264 65.5601 137.213 65.5812 137.077 65.5629C135.754 65.3854 134.43 65.2187 133.107 65.0399C132.952 65.0198 132.903 65.0528 132.886 65.21C132.824 65.7607 132.751 66.3105 132.672 66.8588C132.654 66.9925 132.683 67.0333 132.819 67.0509C133.929 67.1897 135.038 67.3394 136.149 67.4769C136.299 67.4964 136.333 67.5409 136.311 67.6899C136.236 68.1928 136.172 68.6975 136.114 69.2026C136.097 69.3343 136.058 69.3707 135.923 69.3525C134.814 69.2028 133.703 69.0639 132.594 68.9129C132.443 68.8932 132.401 68.9299 132.384 69.0786C132.318 69.6573 132.242 70.2356 132.159 70.8134C132.14 70.9563 132.177 70.9974 132.315 71.0147C133.64 71.182 134.963 71.3589 136.288 71.5245C136.44 71.5443 136.483 71.5861 136.459 71.7446C136.381 72.2586 136.317 72.7746 136.258 73.2913C136.243 73.4063 136.213 73.4415 136.091 73.4256C133.927 73.1402 131.764 72.859 129.6 72.582C129.453 72.5629 129.447 72.5046 129.463 72.3832C129.668 70.8196 129.872 69.2559 130.073 67.692Z" fill="#29225A"/>
<path d="M156.557 68.0642C156.144 68.0144 155.718 67.9379 155.287 67.9178C155.162 67.9095 155.037 67.9091 154.912 67.9165C154.486 67.9492 154.314 68.102 154.232 68.5217C154.193 68.7237 154.173 68.9292 154.174 69.135C154.175 69.3693 154.28 69.52 154.496 69.6066C154.852 69.7486 155.225 69.825 155.593 69.922C156.137 70.0619 156.685 70.1881 157.223 70.3445C158.17 70.6199 158.611 71.1954 158.66 72.1848C158.7 72.9856 158.62 73.7729 158.357 74.5323C157.981 75.6201 157.25 76.1377 156.105 76.1463C155.245 76.1527 154.397 76.0093 153.551 75.8693C152.789 75.7433 152.036 75.5714 151.285 75.391C151.162 75.3615 151.134 75.3178 151.151 75.1959C151.223 74.6922 151.288 74.188 151.348 73.6828C151.363 73.5671 151.388 73.5327 151.516 73.5608C152.543 73.7852 153.571 74.0008 154.619 74.1062C154.94 74.1383 155.263 74.1619 155.587 74.1172C155.822 74.0848 155.973 73.9554 156.043 73.7355C156.143 73.4187 156.185 73.0864 156.167 72.7547C156.154 72.4963 155.986 72.361 155.762 72.281C155.37 72.1419 154.966 72.0533 154.564 71.9454C154.076 71.8128 153.585 71.6926 153.099 71.5543C152.257 71.3145 151.785 70.7502 151.701 69.8742C151.626 69.1212 151.701 68.3605 151.923 67.6369C152.241 66.6059 152.977 66.0471 154.096 65.9619C154.815 65.9072 155.526 65.9924 156.234 66.0996C157.104 66.2314 157.966 66.406 158.806 66.6761C158.933 66.7164 158.986 66.7641 158.962 66.9147C158.888 67.3944 158.83 67.8771 158.772 68.3594C158.757 68.4726 158.733 68.5193 158.605 68.4833C157.94 68.2924 157.255 68.1867 156.557 68.0642Z" fill="#29225A"/>
<path d="M169.942 73.892C169.782 75.122 169.62 76.3514 169.465 77.5819C169.447 77.7237 169.404 77.7575 169.264 77.7379C168.571 77.6406 167.878 77.5505 167.184 77.4677C167.032 77.4495 166.992 77.4064 167.013 77.2479C167.338 74.7947 167.658 72.3407 167.974 69.8862C168.003 69.6654 168.003 69.6654 167.786 69.6372C167.031 69.5391 166.276 69.4372 165.52 69.3458C165.385 69.3282 165.356 69.282 165.376 69.1517C165.455 68.6029 165.525 68.0531 165.59 67.5026C165.606 67.3835 165.633 67.3378 165.767 67.3557C168.252 67.6828 170.737 68.0058 173.222 68.3247C173.357 68.3423 173.373 68.3918 173.357 68.512C173.28 69.061 173.207 69.6109 173.142 70.1612C173.127 70.2947 173.086 70.3299 172.951 70.3113C172.18 70.2052 171.407 70.1106 170.636 70.0042C170.49 69.9852 170.439 70.0132 170.42 70.1674C170.267 71.4101 170.103 72.651 169.942 73.892Z" fill="#E30814"/>
<path d="M161.255 71.7459C161.459 70.1811 161.665 68.6167 161.861 67.0537C161.883 66.887 161.933 66.8556 162.094 66.8765C162.785 66.9757 163.48 67.0642 164.173 67.1467C164.305 67.1639 164.337 67.2027 164.32 67.3387C163.908 70.4773 163.5 73.6163 163.096 76.7556C163.077 76.9019 163.028 76.9266 162.892 76.9076C162.194 76.8102 161.495 76.7193 160.795 76.6351C160.656 76.617 160.621 76.5778 160.64 76.4343C160.851 74.8736 161.052 73.3096 161.255 71.7459Z" fill="#E30814"/>
<path d="M125.786 59.1679L128.92 56.9975C128.796 58.2633 128.676 59.4851 128.554 60.7205C128.482 60.6764 128.482 60.6135 128.466 60.5626C128.284 60.0097 128.099 59.4575 127.925 58.9011C127.883 58.7656 127.825 58.7418 127.694 58.7725C127.125 58.906 126.552 59.0292 125.981 59.1549C125.928 59.166 125.875 59.193 125.786 59.1679Z" fill="#E30814"/>
<path d="M111.503 74.6998L111.496 70.9908L111.534 70.9826C111.679 71.3083 111.824 71.634 111.969 71.9595C112.077 72.2047 112.19 72.4477 112.288 72.6974C112.342 72.8355 112.403 72.8741 112.552 72.8212C113.099 72.6294 113.651 72.4536 114.202 72.2719C114.256 72.2509 114.316 72.2449 114.373 72.2545L111.503 74.6998Z" fill="#E30814"/>
</g>
</g>
<defs>
<clipPath id="clip0_0_3889">
<rect width="268" height="241" fill="white"/>
</clipPath>
<clipPath id="clip1_0_3889">
<rect width="61.049" height="19.7997" fill="white" transform="translate(113.552 55) rotate(7.40602)"/>
</clipPath>
</defs>
</svg>
